<svg width="343" height="50" viewBox="0 0 343 50" fill="none" xmlns="http://www.w3.org/2000/svg">
<path d="M0.5 8C0.5 3.85787 3.85786 0.5 8 0.5H335C339.142 0.5 342.5 3.85786 342.5 8V42C342.5 46.1421 339.142 49.5 335 49.5H7.99999C3.85786 49.5 0.5 46.1421 0.5 42V8Z" fill="#F6F6F6" stroke="#E8E8E8"/>
<path d="M17.2784 31V19.3636H21.4261C22.3314 19.3636 23.0814 19.5284 23.6761 19.858C24.2708 20.1875 24.7159 20.6383 25.0114 21.2102C25.3068 21.7784 25.4545 22.4186 25.4545 23.1307C25.4545 23.8466 25.3049 24.4905 25.0057 25.0625C24.7102 25.6307 24.2633 26.0814 23.6648 26.4148C23.0701 26.7443 22.322 26.9091 21.4205 26.9091H18.5682V25.4205H21.2614C21.8333 25.4205 22.2973 25.322 22.6534 25.125C23.0095 24.9242 23.2708 24.6515 23.4375 24.3068C23.6042 23.9621 23.6875 23.5701 23.6875 23.1307C23.6875 22.6913 23.6042 22.3011 23.4375 21.9602C23.2708 21.6193 23.0076 21.3523 22.6477 21.1591C22.2917 20.9659 21.822 20.8693 21.2386 20.8693H19.0341V31H17.2784ZM29.8381 31.1932C29.285 31.1932 28.785 31.0909 28.3381 30.8864C27.8911 30.678 27.5369 30.3769 27.2756 29.983C27.018 29.589 26.8892 29.1061 26.8892 28.5341C26.8892 28.0417 26.9839 27.6364 27.1733 27.3182C27.3627 27 27.6184 26.7481 27.9403 26.5625C28.2623 26.3769 28.6222 26.2367 29.0199 26.142C29.4176 26.0473 29.8229 25.9754 30.2358 25.9261C30.7585 25.8655 31.1828 25.8163 31.5085 25.7784C31.8343 25.7367 32.071 25.6705 32.2188 25.5795C32.3665 25.4886 32.4403 25.3409 32.4403 25.1364V25.0966C32.4403 24.6004 32.3002 24.2159 32.0199 23.9432C31.7434 23.6705 31.3305 23.5341 30.7812 23.5341C30.2093 23.5341 29.7585 23.661 29.429 23.9148C29.1032 24.1648 28.8778 24.4432 28.7528 24.75L27.1562 24.3864C27.3456 23.8561 27.6222 23.428 27.9858 23.1023C28.3532 22.7727 28.7756 22.5341 29.2528 22.3864C29.7301 22.2348 30.232 22.1591 30.7585 22.1591C31.107 22.1591 31.4763 22.2008 31.8665 22.2841C32.2604 22.3636 32.6278 22.5114 32.9688 22.7273C33.3134 22.9432 33.5956 23.2519 33.8153 23.6534C34.035 24.0511 34.1449 24.5682 34.1449 25.2045V31H32.4858V29.8068H32.4176C32.3078 30.0265 32.143 30.2424 31.9233 30.4545C31.7036 30.6667 31.4214 30.8428 31.0767 30.983C30.732 31.1231 30.3191 31.1932 29.8381 31.1932ZM30.2074 29.8295C30.6771 29.8295 31.0786 29.7367 31.4119 29.5511C31.7491 29.3655 32.0047 29.1231 32.179 28.8239C32.357 28.5208 32.446 28.197 32.446 27.8523V26.7273C32.3854 26.7879 32.268 26.8447 32.0938 26.8977C31.9233 26.947 31.7282 26.9905 31.5085 27.0284C31.2888 27.0625 31.0748 27.0947 30.8665 27.125C30.6581 27.1515 30.4839 27.1742 30.3438 27.1932C30.0142 27.2348 29.7131 27.3049 29.4403 27.4034C29.1714 27.5019 28.9555 27.6439 28.7926 27.8295C28.6335 28.0114 28.554 28.2538 28.554 28.5568C28.554 28.9773 28.7093 29.2955 29.0199 29.5114C29.3305 29.7235 29.7263 29.8295 30.2074 29.8295ZM42.9474 24.4034L41.4077 24.6761C41.3433 24.4792 41.241 24.2917 41.1009 24.1136C40.9645 23.9356 40.7789 23.7898 40.544 23.6761C40.3092 23.5625 40.0156 23.5057 39.6634 23.5057C39.1823 23.5057 38.7808 23.6136 38.4588 23.8295C38.1368 24.0417 37.9759 24.3163 37.9759 24.6534C37.9759 24.9451 38.0838 25.1799 38.2997 25.358C38.5156 25.536 38.8641 25.6818 39.3452 25.7955L40.7315 26.1136C41.5346 26.2992 42.133 26.5852 42.527 26.9716C42.9209 27.358 43.1179 27.8598 43.1179 28.4773C43.1179 29 42.9664 29.4659 42.6634 29.875C42.3641 30.2803 41.9455 30.5985 41.4077 30.8295C40.8736 31.0606 40.2543 31.1761 39.5497 31.1761C38.5724 31.1761 37.7751 30.9678 37.1577 30.5511C36.5402 30.1307 36.1615 29.5341 36.0213 28.7614L37.6634 28.5114C37.7656 28.9394 37.9759 29.2633 38.294 29.483C38.6122 29.6989 39.027 29.8068 39.5384 29.8068C40.0952 29.8068 40.5402 29.6913 40.8736 29.4602C41.2069 29.2254 41.3736 28.9394 41.3736 28.6023C41.3736 28.3295 41.2713 28.1004 41.0668 27.9148C40.866 27.7292 40.5573 27.589 40.1406 27.4943L38.6634 27.1705C37.849 26.9848 37.2467 26.6894 36.8565 26.2841C36.4702 25.8788 36.277 25.3655 36.277 24.7443C36.277 24.2292 36.4209 23.7784 36.7088 23.392C36.9967 23.0057 37.3944 22.7045 37.902 22.4886C38.4096 22.2689 38.991 22.1591 39.6463 22.1591C40.5895 22.1591 41.3319 22.3636 41.8736 22.7727C42.4152 23.178 42.7732 23.7216 42.9474 24.4034ZM51.5256 24.4034L49.9858 24.6761C49.9214 24.4792 49.8191 24.2917 49.679 24.1136C49.5426 23.9356 49.357 23.7898 49.1222 23.6761C48.8873 23.5625 48.5938 23.5057 48.2415 23.5057C47.7604 23.5057 47.3589 23.6136 47.0369 23.8295C46.715 24.0417 46.554 24.3163 46.554 24.6534C46.554 24.9451 46.6619 25.1799 46.8778 25.358C47.0938 25.536 47.4422 25.6818 47.9233 25.7955L49.3097 26.1136C50.1127 26.2992 50.7112 26.5852 51.1051 26.9716C51.4991 27.358 51.696 27.8598 51.696 28.4773C51.696 29 51.5445 29.4659 51.2415 29.875C50.9422 30.2803 50.5237 30.5985 49.9858 30.8295C49.4517 31.0606 48.8324 31.1761 48.1278 31.1761C47.1506 31.1761 46.3532 30.9678 45.7358 30.5511C45.1184 30.1307 44.7396 29.5341 44.5994 28.7614L46.2415 28.5114C46.3438 28.9394 46.554 29.2633 46.8722 29.483C47.1903 29.6989 47.6051 29.8068 48.1165 29.8068C48.6733 29.8068 49.1184 29.6913 49.4517 29.4602C49.785 29.2254 49.9517 28.9394 49.9517 28.6023C49.9517 28.3295 49.8494 28.1004 49.6449 27.9148C49.4441 27.7292 49.1354 27.589 48.7188 27.4943L47.2415 27.1705C46.4271 26.9848 45.8248 26.6894 45.4347 26.2841C45.0483 25.8788 44.8551 25.3655 44.8551 24.7443C44.8551 24.2292 44.9991 23.7784 45.2869 23.392C45.5748 23.0057 45.9725 22.7045 46.4801 22.4886C46.9877 22.2689 47.5691 22.1591 48.2244 22.1591C49.1676 22.1591 49.91 22.3636 50.4517 22.7727C50.9934 23.178 51.3513 23.7216 51.5256 24.4034ZM55.456 31L52.8878 22.2727H54.6435L56.3537 28.6818H56.4389L58.1548 22.2727H59.9105L61.6151 28.6534H61.7003L63.3991 22.2727H65.1548L62.5923 31H60.8594L59.0866 24.6989H58.956L57.1832 31H55.456ZM70.1776 31.1761C69.3594 31.1761 68.6454 30.9886 68.0355 30.6136C67.4257 30.2386 66.9522 29.714 66.6151 29.0398C66.2779 28.3655 66.1094 27.5777 66.1094 26.6761C66.1094 25.7708 66.2779 24.9792 66.6151 24.3011C66.9522 23.6231 67.4257 23.0966 68.0355 22.7216C68.6454 22.3466 69.3594 22.1591 70.1776 22.1591C70.9957 22.1591 71.7098 22.3466 72.3196 22.7216C72.9295 23.0966 73.4029 23.6231 73.7401 24.3011C74.0772 24.9792 74.2457 25.7708 74.2457 26.6761C74.2457 27.5777 74.0772 28.3655 73.7401 29.0398C73.4029 29.714 72.9295 30.2386 72.3196 30.6136C71.7098 30.9886 70.9957 31.1761 70.1776 31.1761ZM70.1832 29.75C70.7135 29.75 71.1529 29.6098 71.5014 29.3295C71.8499 29.0492 72.1075 28.6761 72.2741 28.2102C72.4446 27.7443 72.5298 27.2311 72.5298 26.6705C72.5298 26.1136 72.4446 25.6023 72.2741 25.1364C72.1075 24.6667 71.8499 24.2898 71.5014 24.0057C71.1529 23.7216 70.7135 23.5795 70.1832 23.5795C69.6491 23.5795 69.206 23.7216 68.8537 24.0057C68.5052 24.2898 68.2457 24.6667 68.0753 25.1364C67.9086 25.6023 67.8253 26.1136 67.8253 26.6705C67.8253 27.2311 67.9086 27.7443 68.0753 28.2102C68.2457 28.6761 68.5052 29.0492 68.8537 29.3295C69.206 29.6098 69.6491 29.75 70.1832 29.75ZM76.142 31V22.2727H77.7841V23.6591H77.875C78.0341 23.1894 78.3144 22.8201 78.7159 22.5511C79.1212 22.2784 79.5795 22.142 80.0909 22.142C80.197 22.142 80.322 22.1458 80.4659 22.1534C80.6136 22.161 80.7292 22.1705 80.8125 22.1818V23.8068C80.7443 23.7879 80.6231 23.767 80.4489 23.7443C80.2746 23.7178 80.1004 23.7045 79.9261 23.7045C79.5246 23.7045 79.1667 23.7898 78.8523 23.9602C78.5417 24.1269 78.2955 24.3598 78.1136 24.6591C77.9318 24.9545 77.8409 25.2917 77.8409 25.6705V31H76.142ZM85.2372 31.1705C84.5327 31.1705 83.9039 30.9905 83.3509 30.6307C82.8016 30.267 82.3698 29.75 82.0554 29.0795C81.7448 28.4053 81.5895 27.5966 81.5895 26.6534C81.5895 25.7102 81.7467 24.9034 82.0611 24.233C82.3793 23.5625 82.8149 23.0492 83.3679 22.6932C83.9209 22.3371 84.5478 22.1591 85.2486 22.1591C85.7902 22.1591 86.2259 22.25 86.5554 22.4318C86.8887 22.6098 87.1463 22.8182 87.3281 23.0568C87.5137 23.2955 87.6577 23.5057 87.7599 23.6875H87.8622V19.3636H89.5611V31H87.902V29.642H87.7599C87.6577 29.8277 87.5099 30.0398 87.3168 30.2784C87.1274 30.517 86.866 30.7254 86.5327 30.9034C86.1993 31.0814 85.7675 31.1705 85.2372 31.1705ZM85.6122 29.7216C86.1009 29.7216 86.5137 29.5928 86.8509 29.3352C87.1918 29.0739 87.4493 28.7121 87.6236 28.25C87.8016 27.7879 87.8906 27.25 87.8906 26.6364C87.8906 26.0303 87.8035 25.5 87.6293 25.0455C87.455 24.5909 87.1993 24.2367 86.8622 23.983C86.5251 23.7292 86.1084 23.6023 85.6122 23.6023C85.1009 23.6023 84.6747 23.7348 84.3338 24C83.9929 24.2652 83.7353 24.6269 83.5611 25.0852C83.3906 25.5436 83.3054 26.0606 83.3054 26.6364C83.3054 27.2197 83.3925 27.7443 83.5668 28.2102C83.741 28.6761 83.9986 29.0455 84.3395 29.3182C84.6842 29.5871 85.1084 29.7216 85.6122 29.7216Z" fill="#BDBDBD"/>
<path d="M292.125 22.4205C292.064 21.8826 291.814 21.4659 291.375 21.1705C290.936 20.8712 290.383 20.7216 289.716 20.7216C289.239 20.7216 288.826 20.7973 288.477 20.9489C288.129 21.0966 287.858 21.3011 287.665 21.5625C287.475 21.8201 287.381 22.1136 287.381 22.4432C287.381 22.7197 287.445 22.9583 287.574 23.1591C287.706 23.3598 287.879 23.5284 288.091 23.6648C288.307 23.7973 288.538 23.9091 288.784 24C289.03 24.0871 289.267 24.1591 289.494 24.2159L290.631 24.5114C291.002 24.6023 291.383 24.7254 291.773 24.8807C292.163 25.036 292.525 25.2405 292.858 25.4943C293.191 25.7481 293.46 26.0625 293.665 26.4375C293.873 26.8125 293.977 27.2614 293.977 27.7841C293.977 28.4432 293.807 29.0284 293.466 29.5398C293.129 30.0511 292.638 30.4545 291.994 30.75C291.354 31.0455 290.58 31.1932 289.67 31.1932C288.799 31.1932 288.045 31.0549 287.409 30.7784C286.773 30.5019 286.275 30.1098 285.915 29.6023C285.555 29.0909 285.356 28.4848 285.318 27.7841H287.08C287.114 28.2045 287.25 28.5549 287.489 28.8352C287.731 29.1117 288.04 29.3182 288.415 29.4545C288.794 29.5871 289.208 29.6534 289.659 29.6534C290.155 29.6534 290.597 29.5758 290.983 29.4205C291.373 29.2614 291.68 29.0417 291.903 28.7614C292.127 28.4773 292.239 28.1458 292.239 27.767C292.239 27.4223 292.14 27.1402 291.943 26.9205C291.75 26.7008 291.487 26.5189 291.153 26.375C290.824 26.2311 290.451 26.1042 290.034 25.9943L288.659 25.6193C287.727 25.3655 286.989 24.9924 286.443 24.5C285.902 24.0076 285.631 23.3561 285.631 22.5455C285.631 21.875 285.813 21.2898 286.176 20.7898C286.54 20.2898 287.032 19.9015 287.653 19.625C288.275 19.3447 288.975 19.2045 289.756 19.2045C290.544 19.2045 291.239 19.3428 291.841 19.6193C292.447 19.8958 292.924 20.2765 293.273 20.7614C293.621 21.2424 293.803 21.7955 293.818 22.4205H292.125ZM297.638 25.8182V31H295.939V19.3636H297.615V23.6932H297.723C297.928 23.2235 298.24 22.8504 298.661 22.5739C299.081 22.2973 299.63 22.1591 300.308 22.1591C300.907 22.1591 301.429 22.2822 301.876 22.5284C302.327 22.7746 302.676 23.142 302.922 23.6307C303.172 24.1155 303.297 24.7216 303.297 25.4489V31H301.598V25.6534C301.598 25.0133 301.433 24.517 301.104 24.1648C300.774 23.8087 300.316 23.6307 299.729 23.6307C299.327 23.6307 298.967 23.7159 298.649 23.8864C298.335 24.0568 298.087 24.3068 297.905 24.6364C297.727 24.9621 297.638 25.3561 297.638 25.8182ZM309.24 31.1761C308.422 31.1761 307.708 30.9886 307.098 30.6136C306.488 30.2386 306.015 29.714 305.678 29.0398C305.34 28.3655 305.172 27.5777 305.172 26.6761C305.172 25.7708 305.34 24.9792 305.678 24.3011C306.015 23.6231 306.488 23.0966 307.098 22.7216C307.708 22.3466 308.422 22.1591 309.24 22.1591C310.058 22.1591 310.772 22.3466 311.382 22.7216C311.992 23.0966 312.465 23.6231 312.803 24.3011C313.14 24.9792 313.308 25.7708 313.308 26.6761C313.308 27.5777 313.14 28.3655 312.803 29.0398C312.465 29.714 311.992 30.2386 311.382 30.6136C310.772 30.9886 310.058 31.1761 309.24 31.1761ZM309.246 29.75C309.776 29.75 310.215 29.6098 310.564 29.3295C310.912 29.0492 311.17 28.6761 311.337 28.2102C311.507 27.7443 311.592 27.2311 311.592 26.6705C311.592 26.1136 311.507 25.6023 311.337 25.1364C311.17 24.6667 310.912 24.2898 310.564 24.0057C310.215 23.7216 309.776 23.5795 309.246 23.5795C308.712 23.5795 308.268 23.7216 307.916 24.0057C307.568 24.2898 307.308 24.6667 307.138 25.1364C306.971 25.6023 306.888 26.1136 306.888 26.6705C306.888 27.2311 306.971 27.7443 307.138 28.2102C307.308 28.6761 307.568 29.0492 307.916 29.3295C308.268 29.6098 308.712 29.75 309.246 29.75ZM316.831 31L314.263 22.2727H316.018L317.729 28.6818H317.814L319.53 22.2727H321.286L322.99 28.6534H323.075L324.774 22.2727H326.53L323.967 31H322.234L320.462 24.6989H320.331L318.558 31H316.831Z" fill="#5DB075"/>
</svg>
