<svg width="26" height="26" viewBox="0 0 26 26" fill="none" xmlns="http://www.w3.org/2000/svg">
<path d="M13.9192 4.3335H12.0808C11.0655 4.3335 10.2424 5.10954 10.2424 6.06683C10.2424 7.16231 9.07034 7.85878 8.10818 7.33502L8.01046 7.28182C7.13117 6.80318 6.00682 7.08723 5.49917 7.91627L4.57997 9.41738C4.07231 10.2464 4.37358 11.3065 5.25287 11.7852C6.21549 12.3092 6.21549 13.6912 5.25287 14.2152C4.37358 14.6938 4.07231 15.7539 4.57997 16.5829L5.49917 18.0841C6.00682 18.9131 7.13117 19.1971 8.01045 18.7185L8.10818 18.6653C9.07034 18.1415 10.2424 18.838 10.2424 19.9335C10.2424 20.8908 11.0655 21.6668 12.0808 21.6668H13.9192C14.9345 21.6668 15.7576 20.8908 15.7576 19.9335C15.7576 18.838 16.9297 18.1415 17.8919 18.6653L17.9896 18.7185C18.8689 19.1971 19.9932 18.9131 20.5009 18.084L21.4201 16.5829C21.9278 15.7539 21.6265 14.6938 20.7472 14.2152C19.7846 13.6912 19.7846 12.3092 20.7472 11.7852C21.6265 11.3065 21.9278 10.2464 21.4201 9.41739L20.5009 7.91628C19.9932 7.08724 18.8689 6.80319 17.9896 7.28184L17.8919 7.33503C16.9297 7.85879 15.7576 7.16231 15.7576 6.06683C15.7576 5.10954 14.9345 4.3335 13.9192 4.3335Z" stroke="#797C7B" stroke-width="1.5" stroke-linejoin="round"/>
<circle cx="13" cy="13" r="3.25" stroke="#797C7B" stroke-width="1.5"/>
</svg>
